<svg width="229.000000" height="218.000000" viewBox="0 0 229 218" fill="none" xmlns="http://www.w3.org/2000/svg" xmlns:xlink="http://www.w3.org/1999/xlink">
	<desc>
			Created with Pixso.
	</desc>
	<defs>
		<clipPath id="clip5_68">
			<rect id="svg" width="149.937500" height="140.000000" transform="translate(-0.312500 76.312500)" fill="white" fill-opacity="0"/>
		</clipPath>
		<clipPath id="clip5_71">
			<rect id="svg.qodef-svg--arrow-pointer-clients" width="81.546875" height="81.546875" transform="translate(146.625000 -0.234375)" fill="white" fill-opacity="0"/>
		</clipPath>
	</defs>
	<g clip-path="url(#clip5_68)">
		<path id="Vector" d="M-0.31 176.11C-0.3 176.16 -0.28 176.22 -0.26 176.27C-0.25 176.3 -0.24 176.34 -0.23 176.37L11.18 196.13L11.21 196.16C11.23 196.19 11.25 196.22 11.28 196.26C11.32 196.3 11.36 196.33 11.41 196.37C11.44 196.39 11.46 196.42 11.49 196.44C11.5 196.44 11.52 196.45 11.53 196.45C11.64 196.51 11.77 196.54 11.9 196.55L57.03 196.55L68.2 215.88L68.23 215.91C68.25 215.94 68.27 215.97 68.3 216.01C68.34 216.05 68.38 216.09 68.43 216.12C68.46 216.14 68.48 216.17 68.51 216.19C68.52 216.2 68.54 216.2 68.55 216.2C68.67 216.27 68.79 216.3 68.92 216.3L137.36 216.3C137.5 216.3 137.63 216.27 137.74 216.2L137.83 216.14C137.92 216.09 137.99 216.02 138.05 215.93C138.06 215.91 138.09 215.9 138.1 215.88L149.51 196.13C149.52 196.11 149.52 196.1 149.53 196.08C149.55 196.04 149.56 196.01 149.57 195.98C149.58 195.94 149.59 195.91 149.6 195.87C149.61 195.83 149.61 195.79 149.61 195.76C149.61 195.74 149.62 195.73 149.62 195.71C149.62 195.69 149.61 195.68 149.61 195.66C149.61 195.62 149.6 195.59 149.6 195.55C149.6 195.51 149.58 195.48 149.57 195.44C149.56 195.4 149.55 195.37 149.53 195.34C149.52 195.32 149.52 195.31 149.51 195.29L126.94 156.2L138.1 136.86C138.11 136.84 138.11 136.83 138.12 136.81C138.14 136.78 138.15 136.75 138.16 136.71C138.17 136.67 138.18 136.64 138.19 136.6C138.2 136.57 138.2 136.53 138.2 136.49C138.2 136.47 138.21 136.46 138.21 136.44C138.21 136.42 138.2 136.41 138.2 136.39C138.2 136.35 138.19 136.32 138.19 136.28C138.19 136.24 138.17 136.21 138.16 136.17C138.15 136.14 138.14 136.11 138.12 136.07C138.11 136.05 138.11 136.04 138.1 136.02L103.9 76.74C103.88 76.71 103.85 76.69 103.83 76.66C103.79 76.62 103.76 76.57 103.72 76.53C103.68 76.5 103.63 76.47 103.59 76.44C103.54 76.41 103.5 76.39 103.45 76.37C103.39 76.35 103.33 76.34 103.27 76.33C103.24 76.33 103.21 76.31 103.17 76.31L80.35 76.31C80.33 76.31 80.32 76.32 80.3 76.32C80.26 76.32 80.23 76.33 80.19 76.33L80.07 76.36C80.04 76.37 80 76.39 79.97 76.4C79.94 76.41 79.94 76.41 79.92 76.42C79.91 76.44 79.9 76.45 79.88 76.45C79.85 76.47 79.82 76.5 79.79 76.52C79.76 76.55 79.73 76.57 79.71 76.6C79.69 76.63 79.66 76.66 79.64 76.69C79.63 76.7 79.62 76.72 79.61 76.73L57.04 115.83L34.73 115.83C34.71 115.83 34.7 115.84 34.68 115.84C34.64 115.84 34.61 115.85 34.57 115.85C34.53 115.85 34.49 115.87 34.46 115.88C34.42 115.89 34.39 115.9 34.36 115.92C34.34 115.93 34.33 115.93 34.31 115.94C34.29 115.95 34.29 115.96 34.27 115.97C34.24 115.99 34.2 116.01 34.18 116.04C34.15 116.06 34.12 116.09 34.1 116.12C34.08 116.15 34.05 116.18 34.03 116.21C34.02 116.22 34 116.23 34 116.25L-0.22 175.53C-0.23 175.56 -0.24 175.59 -0.25 175.63C-0.27 175.68 -0.29 175.73 -0.3 175.79C-0.31 175.84 -0.32 175.89 -0.32 175.95C-0.32 176 -0.32 176.06 -0.31 176.11ZM102.68 78.01L135.92 135.59L115.07 135.59L81.81 78.01L102.68 78.01ZM114.09 175.11L93.22 175.11L115.06 137.27L135.92 137.27L114.09 175.11ZM80.35 78.85L113.6 136.43L91.76 174.27L81.33 156.19L92.5 136.85C92.51 136.83 92.51 136.82 92.52 136.8C92.54 136.77 92.55 136.74 92.56 136.7C92.57 136.66 92.58 136.63 92.59 136.59C92.6 136.56 92.6 136.52 92.6 136.48C92.6 136.46 92.61 136.45 92.61 136.43C92.61 136.41 92.6 136.4 92.6 136.38C92.6 136.34 92.59 136.31 92.59 136.27C92.59 136.23 92.57 136.2 92.56 136.16C92.55 136.13 92.53 136.1 92.52 136.06C92.51 136.04 92.51 136.03 92.5 136.01L81.08 116.26C81.06 116.23 81.03 116.21 81.01 116.18C80.98 116.13 80.94 116.09 80.9 116.05C80.86 116.01 80.82 115.98 80.77 115.96C80.73 115.93 80.68 115.91 80.63 115.89C80.58 115.87 80.52 115.86 80.46 115.86C80.43 115.86 80.39 115.84 80.36 115.84L59 115.84L80.35 78.85ZM57.54 117.53L79.87 117.53L90.31 135.59L46.63 135.59L36.19 117.53L57.54 117.53ZM34.73 118.37L45.16 136.43L11.91 194.02L1.48 175.95L34.73 118.37ZM13.38 194.86L46.63 137.27L90.31 137.27L79.87 155.35L57.54 155.35C57.52 155.35 57.51 155.36 57.49 155.36C57.45 155.36 57.42 155.37 57.38 155.37L57.26 155.4C57.23 155.41 57.19 155.43 57.16 155.44C57.13 155.45 57.13 155.45 57.11 155.46C57.1 155.47 57.09 155.48 57.07 155.49C57.04 155.51 57.01 155.53 56.98 155.56C56.96 155.59 56.93 155.61 56.9 155.64C56.88 155.67 56.85 155.7 56.83 155.73C56.82 155.74 56.8 155.75 56.8 155.77L45.4 175.53C45.38 175.56 45.37 175.59 45.37 175.63C45.34 175.68 45.33 175.73 45.32 175.79C45.31 175.84 45.3 175.9 45.31 175.95C45.3 176 45.31 176.06 45.32 176.11C45.33 176.16 45.34 176.22 45.37 176.27C45.38 176.3 45.39 176.34 45.4 176.37L56.07 194.86L13.38 194.86ZM136.9 214.61L70.41 214.61L80.84 196.55L147.33 196.55L136.9 214.61ZM68.95 213.77L47.12 175.95L57.55 157.87L79.39 195.7L68.95 213.77ZM147.33 194.86L80.84 194.86L59 157.03L79.87 157.03L91.04 176.37L91.07 176.4C91.09 176.43 91.11 176.47 91.14 176.5C91.18 176.54 91.22 176.58 91.27 176.61C91.3 176.63 91.32 176.66 91.35 176.68C91.36 176.69 91.37 176.69 91.39 176.69C91.5 176.75 91.63 176.79 91.76 176.79L114.58 176.79C114.71 176.79 114.84 176.75 114.96 176.69L115.05 176.63C115.13 176.57 115.21 176.5 115.27 176.42C115.28 176.4 115.31 176.39 115.32 176.37L125.99 157.87L147.33 194.86Z" fill="#FFFFFF" fill-opacity="1.000000" fill-rule="nonzero"/>
	</g>
	<g clip-path="url(#clip5_71)">
		<path id="Vector" d="M226.96 64.36L175.21 64.36L227.11 12.45L215.48 0.82L163.58 52.72L163.58 0.97L147.12 17.43L147.12 80.81L210.51 80.81L226.96 64.36Z" stroke="#707070" stroke-opacity="1.000000" stroke-width="0.999901"/>
	</g>
</svg>
