<svg width="219.000000" height="278.000000" viewBox="0 0 219 278" fill="none" xmlns="http://www.w3.org/2000/svg" xmlns:xlink="http://www.w3.org/1999/xlink">
	<desc>
			Created with Pixso.
	</desc>
	<defs>
		<clipPath id="clip5_77">
			<rect id="svg" width="139.968750" height="121.437500" transform="translate(0.000000 85.593750)" fill="white" fill-opacity="0"/>
		</clipPath>
		<clipPath id="clip5_80">
			<rect id="svg.qodef-svg--arrow-pointer-clients" width="81.546875" height="81.546875" transform="translate(136.968750 -0.234375)" fill="white" fill-opacity="0"/>
		</clipPath>
	</defs>
	<g clip-path="url(#clip5_77)">
		<path id="Vector" d="M0.02 193.78C0.03 193.83 0.04 193.88 0.07 193.93C0.07 193.96 0.08 193.99 0.09 194.02L7.37 206.64L7.4 206.67C7.42 206.7 7.45 206.73 7.47 206.76C7.51 206.8 7.55 206.83 7.59 206.87C7.62 206.89 7.63 206.92 7.66 206.93C7.67 206.93 7.69 206.94 7.7 206.94C7.81 206.99 7.93 207.02 8.05 207.03L131.89 207.03C132.01 207.02 132.13 206.99 132.24 206.94C132.27 206.92 132.29 206.9 132.32 206.88C132.4 206.82 132.47 206.76 132.52 206.68C132.53 206.66 132.55 206.65 132.57 206.63L139.85 194.01C139.86 194 139.86 193.98 139.87 193.97C139.89 193.94 139.91 193.9 139.91 193.87C139.92 193.84 139.93 193.8 139.94 193.77C139.95 193.74 139.96 193.7 139.95 193.67C139.95 193.65 139.96 193.64 139.96 193.62C139.96 193.6 139.95 193.59 139.95 193.57C139.95 193.55 139.94 193.5 139.94 193.47C139.94 193.44 139.92 193.4 139.91 193.37C139.9 193.33 139.89 193.3 139.87 193.27C139.86 193.26 139.86 193.24 139.85 193.23L77.94 85.98C77.92 85.95 77.9 85.93 77.88 85.91C77.85 85.86 77.81 85.82 77.77 85.79C77.69 85.73 77.61 85.68 77.52 85.64C77.47 85.62 77.42 85.61 77.36 85.61C77.33 85.61 77.3 85.59 77.26 85.59L62.7 85.59C62.68 85.59 62.67 85.6 62.65 85.6C62.63 85.6 62.58 85.61 62.55 85.61L62.44 85.64C62.4 85.65 62.37 85.66 62.34 85.68C62.33 85.69 62.31 85.69 62.3 85.69C62.29 85.7 62.27 85.71 62.26 85.72C62.23 85.74 62.2 85.76 62.18 85.78C62.15 85.8 62.12 85.83 62.1 85.86C62.08 85.89 62.06 85.91 62.04 85.94C62.02 85.95 62.01 85.96 62.01 85.98L0.08 193.24C0.07 193.27 0.06 193.3 0.06 193.33C0.03 193.38 0.02 193.43 0.01 193.48C0 193.53 -0.01 193.58 0 193.63C0.01 193.68 0.01 193.73 0.02 193.78ZM76.81 87.16L137.82 192.84L31.28 192.84L37.65 181.8L117.34 181.8C117.46 181.8 117.59 181.77 117.69 181.7C117.7 181.69 117.72 181.7 117.73 181.69C117.76 181.67 117.78 181.65 117.8 181.63C117.84 181.6 117.88 181.56 117.92 181.52C117.95 181.48 117.98 181.44 118 181.4C118.03 181.36 118.05 181.32 118.06 181.27C118.08 181.22 118.09 181.17 118.09 181.11C118.09 181.08 118.11 181.05 118.11 181.01C118.11 180.99 118.1 180.98 118.1 180.96C118.1 180.91 118.09 180.86 118.07 180.81C118.06 180.76 118.04 180.71 118.02 180.66C118.01 180.65 118.01 180.63 118 180.62L64.05 87.16L76.81 87.16ZM131.45 205.46L9.42 205.46L62.7 113.17L69.07 124.21L29.23 193.23C29.22 193.24 29.22 193.25 29.22 193.27C29.2 193.32 29.18 193.37 29.17 193.42C29.15 193.47 29.14 193.52 29.14 193.57C29.14 193.59 29.13 193.6 29.13 193.62C29.13 193.64 29.15 193.68 29.15 193.72C29.15 193.77 29.16 193.83 29.18 193.88C29.2 193.93 29.22 193.97 29.24 194.01C29.26 194.05 29.29 194.09 29.32 194.13C29.36 194.17 29.4 194.2 29.44 194.24C29.47 194.26 29.48 194.29 29.51 194.3C29.52 194.31 29.54 194.3 29.55 194.31C29.65 194.37 29.77 194.4 29.9 194.41L137.8 194.41L131.45 205.46ZM101.41 180.23L38.55 180.23L69.98 125.79L101.41 180.23ZM62.7 87.95L115.97 180.23L103.23 180.23L63.39 111.21C63.37 111.2 63.36 111.19 63.36 111.17C63.33 111.13 63.29 111.09 63.26 111.05C63.22 111.02 63.18 110.98 63.14 110.95C63.13 110.94 63.11 110.93 63.1 110.92C63.07 110.91 63.04 110.9 63.01 110.89C62.96 110.87 62.91 110.86 62.86 110.84C62.76 110.83 62.66 110.83 62.56 110.84C62.51 110.86 62.46 110.87 62.41 110.89C62.38 110.9 62.35 110.91 62.32 110.92C62.31 110.94 62.29 110.95 62.28 110.95C62.24 110.98 62.2 111.02 62.16 111.05C62.12 111.09 62.08 111.13 62.06 111.17C62.04 111.19 62.03 111.2 62.03 111.21L8.07 204.68L1.69 193.64L62.7 87.95Z" fill="#FFFFFF" fill-opacity="1.000000" fill-rule="nonzero"/>
	</g>
	<g clip-path="url(#clip5_80)">
		<path id="Vector" d="M217.3 64.36L165.55 64.36L217.46 12.45L205.82 0.82L153.92 52.72L153.92 0.97L137.46 17.43L137.46 80.81L200.85 80.81L217.3 64.36Z" stroke="#707070" stroke-opacity="1.000000" stroke-width="0.999901"/>
	</g>
	<path id="aron gym" d="M86.69 267.58C87.06 267.33 87.34 267.1 87.52 266.89L87.52 262.3L83 262.3L83 264.09L85.06 264.09L85.06 265.98C84.98 266.05 84.87 266.13 84.73 266.21C84.58 266.29 84.39 266.36 84.16 266.42C83.92 266.47 83.63 266.5 83.27 266.5C82.7 266.5 82.22 266.37 81.83 266.1C81.44 265.84 81.15 265.44 80.95 264.92C80.75 264.39 80.66 263.74 80.66 262.96L80.66 262.3C80.66 261.52 80.75 260.87 80.93 260.35C81.12 259.82 81.39 259.43 81.74 259.16Q81.84 259.09 81.94 259.03Q82.41 258.76 83.03 258.76C83.49 258.76 83.86 258.84 84.15 258.99C84.43 259.13 84.66 259.34 84.81 259.62C84.97 259.89 85.08 260.22 85.13 260.6L87.52 260.6C87.44 259.85 87.23 259.19 86.89 258.62C86.56 258.05 86.07 257.6 85.43 257.28C84.79 256.95 83.97 256.78 82.96 256.78C82 256.78 81.16 257 80.44 257.43C79.73 257.87 79.17 258.49 78.77 259.32C78.37 260.14 78.17 261.14 78.17 262.32L78.17 262.96C78.17 264.14 78.38 265.13 78.79 265.96C79.21 266.78 79.79 267.41 80.53 267.84C81.28 268.27 82.14 268.48 83.12 268.48C83.96 268.48 84.67 268.39 85.25 268.21C85.84 268.04 86.32 267.83 86.69 267.58ZM58.48 265.88C58.89 265.04 59.1 264.04 59.1 262.87L59.1 262.41C59.1 261.24 58.89 260.24 58.47 259.41C58.06 258.57 57.49 257.93 56.76 257.47Q56.59 257.37 56.42 257.29Q55.45 256.79 54.22 256.79Q53.02 256.79 52.05 257.27Q51.86 257.36 51.69 257.47Q51.43 257.63 51.19 257.82Q50.44 258.45 49.96 259.41C49.55 260.24 49.34 261.24 49.34 262.41L49.34 262.87Q49.34 264.62 49.97 265.88C50.38 266.71 50.96 267.35 51.69 267.81C52.43 268.26 53.28 268.48 54.24 268.48Q55.49 268.48 56.48 267.97Q56.63 267.9 56.77 267.81C57.5 267.35 58.07 266.71 58.48 265.88ZM26.06 268.32L28.68 268.32L29.42 266.06L33.45 266.06L34.2 268.32L36.81 268.32L32.56 256.95L30.29 256.95L26.06 268.32ZM31.43 259.95L30.08 264.07L32.79 264.07L31.43 259.95ZM45.18 257.35C44.55 257.08 43.8 256.95 42.92 256.95L38.64 256.95L38.64 268.32L41.09 268.32L41.09 264.21L42.85 264.21L44.93 268.32L47.57 268.32L47.57 268.21L45.13 263.57C45.45 263.43 45.73 263.26 45.98 263.07C46.35 262.78 46.64 262.42 46.84 261.98C47.05 261.54 47.15 261.01 47.15 260.39C47.15 259.64 46.98 259.01 46.64 258.5C46.3 257.99 45.82 257.61 45.18 257.35ZM41.09 262.22L42.91 262.22C43.3 262.22 43.64 262.16 43.9 262.03C44.17 261.89 44.36 261.7 44.5 261.46Q44.69 261.09 44.69 260.59C44.69 260.08 44.54 259.68 44.25 259.38Q43.82 258.93 42.92 258.93L41.09 258.93L41.09 262.22ZM68.41 268.32L70.86 268.32L70.86 256.95L68.42 256.95L68.42 264.28L63.99 256.95L61.54 256.95L61.54 268.32L63.99 268.32L63.99 261L68.41 268.32ZM96.42 256.95L94.13 262L91.85 256.95L89.17 256.95L92.89 264.21L92.89 268.32L95.38 268.32L95.38 264.21L99.09 256.95L96.42 256.95ZM102.96 256.95L104.09 256.95L106.91 265.07L109.73 256.95L112.94 256.95L112.94 268.32L110.48 268.32L110.48 265.38L110.72 259.98L107.74 268.32L106.07 268.32L103.1 259.97L103.34 265.38L103.34 268.32L100.88 268.32L100.88 256.95L102.96 256.95ZM56.34 260.43Q56.62 261.22 56.62 262.39L56.62 262.87Q56.62 264.03 56.34 264.84C56.16 265.37 55.89 265.77 55.53 266.05C55.18 266.33 54.75 266.46 54.24 266.46Q53.62 266.46 53.15 266.2Q53.04 266.13 52.93 266.05C52.57 265.77 52.3 265.37 52.12 264.84Q51.83 264.03 51.83 262.87L51.83 262.39Q51.83 261.22 52.11 260.43C52.3 259.89 52.57 259.49 52.92 259.22C53.27 258.95 53.71 258.82 54.22 258.82C54.73 258.82 55.16 258.95 55.52 259.22C55.88 259.49 56.15 259.89 56.34 260.43Z" fill="#FFFFFF" fill-opacity="1.000000" fill-rule="evenodd"/>
</svg>
