<svg width="200.000000" height="278.000000" viewBox="0 0 200 278" fill="none" xmlns="http://www.w3.org/2000/svg" xmlns:xlink="http://www.w3.org/1999/xlink">
	<desc>
			Created with Pixso.
	</desc>
	<defs>
		<clipPath id="clip5_86">
			<rect id="svg" width="121.218750" height="139.968750" transform="translate(-0.296875 76.328125)" fill="white" fill-opacity="0"/>
		</clipPath>
		<clipPath id="clip5_90">
			<rect id="svg.qodef-svg--arrow-pointer-clients" width="81.546875" height="81.546875" transform="translate(117.921875 -0.234375)" fill="white" fill-opacity="0"/>
		</clipPath>
	</defs>
	<g clip-path="url(#clip5_86)">
		<path id="Vector" d="M120.92 111.32L100.22 99.37L81.01 110.46L81.01 88.27L60.31 76.32L39.61 88.27L39.61 110.45L20.4 99.36L-0.3 111.32L-0.3 135.22L18.9 146.31L-0.3 157.4L-0.3 181.31L20.39 193.26L39.6 182.17L39.6 204.34L60.3 216.29L80.99 204.34L80.99 182.17L100.2 193.26L120.92 181.31L120.92 157.4L101.71 146.31L120.92 135.22L120.92 111.32ZM100.22 101.09L118.69 111.75L81.13 133.5L81.01 112.18L100.22 101.09ZM79.52 113.04L79.64 134.36L61.06 145.13L61.06 100.66L79.52 90L79.52 113.04ZM41.1 90L59.56 100.66L59.56 145.13L41.1 134.44L41.1 90ZM20.39 101.09L39.6 112.18L39.6 133.57L1.94 111.75L20.39 101.09ZM1.19 134.36L1.19 113.05L38.86 134.86L20.4 145.45L1.19 134.36ZM1.19 180.45L1.19 159.13L19.64 169.79L19.64 191.11L1.19 180.45ZM1.94 157.83L20.77 146.96L40.36 135.72L58.82 146.41L20.4 168.49L1.94 157.83ZM59.56 214.14L41.1 203.48L41.1 181.31L59.56 170.65L59.56 214.14ZM41.1 179.59L39.98 180.24L21.14 191.12L21.14 169.8L59.56 147.72L59.56 168.93L41.1 179.59ZM60.31 99.37L41.85 88.71L60.31 78.05L78.76 88.71L60.31 99.37ZM79.51 203.48L61.06 214.14L61.06 170.65L79.51 181.31L79.51 203.48ZM99.47 191.11L80.63 180.23L79.51 179.58L61.06 168.92L61.06 147.71L99.47 169.79L99.47 191.11ZM119.43 180.45L100.97 191.11L100.97 169.61L119.43 159.12L119.43 180.45ZM118.67 157.83L100.06 168.41L61.8 146.42L80.38 135.65L98.73 146.31L99.35 146.67L99.72 146.89L99.84 146.96L118.67 157.83ZM119.43 134.36L100.22 145.45L81.88 134.79L119.44 113.05L119.44 134.36L119.43 134.36Z" fill="#FFFFFF" fill-opacity="1.000000" fill-rule="nonzero"/>
	</g>
	<g clip-path="url(#clip5_90)">
		<path id="Vector" d="M198.26 64.36L146.5 64.36L198.41 12.45L186.77 0.82L134.88 52.72L134.88 0.97L118.42 17.43L118.42 80.81L181.81 80.81L198.26 64.36Z" stroke="#707070" stroke-opacity="1.000000" stroke-width="0.999901"/>
	</g>
	<path id="fit &amp; tone" d="M51.35 260.24C51.25 260.43 51.04 260.62 50.72 260.83L50.16 261.2C50.06 261.08 49.97 260.97 49.89 260.85C49.62 260.49 49.49 260.13 49.49 259.78Q49.49 259.45 49.62 259.2Q49.67 259.09 49.74 259C49.92 258.79 50.17 258.68 50.52 258.68Q50.87 258.68 51.1 258.85Q51.18 258.91 51.24 258.99C51.42 259.19 51.5 259.4 51.5 259.63C51.5 259.84 51.45 260.04 51.35 260.24ZM51.23 262.49L51.93 261.99C52.23 261.77 52.5 261.54 52.73 261.29C52.96 261.04 53.13 260.76 53.26 260.46C53.39 260.15 53.45 259.82 53.45 259.47C53.45 258.99 53.33 258.54 53.1 258.14C52.86 257.73 52.51 257.4 52.07 257.16Q51.42 256.78 50.52 256.78C49.89 256.78 49.34 256.91 48.87 257.17C48.4 257.42 48.04 257.78 47.77 258.23C47.51 258.68 47.38 259.2 47.38 259.81C47.38 260.39 47.55 260.95 47.89 261.5C48.06 261.75 48.24 262.02 48.46 262.31C48.07 262.59 47.72 262.87 47.42 263.14Q46.95 263.57 46.67 264.08C46.5 264.41 46.41 264.81 46.41 265.26C46.41 265.89 46.56 266.44 46.85 266.93C47.15 267.42 47.58 267.8 48.14 268.07C48.7 268.35 49.36 268.49 50.13 268.49C50.79 268.49 51.4 268.39 51.94 268.21C52.31 268.07 52.66 267.9 53.02 267.67L53.58 268.32L56.25 268.32L54.54 266.34C54.81 265.99 55.01 265.61 55.16 265.19C55.43 264.43 55.56 263.6 55.56 262.71L53.56 262.71Q53.56 263.57 53.28 264.28C53.23 264.41 53.17 264.55 53.11 264.67L51.23 262.49ZM49.55 263.68L49.41 263.78C49.23 263.94 49.1 264.09 49 264.24C48.91 264.39 48.85 264.54 48.82 264.68Q48.77 264.89 48.77 265.1C48.77 265.39 48.84 265.65 48.96 265.87C49.09 266.09 49.26 266.27 49.49 266.4Q49.49 266.41 49.5 266.41Q49.83 266.59 50.26 266.59C50.68 266.59 51.08 266.5 51.47 266.31C51.55 266.27 51.64 266.23 51.72 266.18L49.55 263.68ZM81.92 265.88C82.33 265.04 82.53 264.04 82.53 262.87L82.53 262.41C82.53 261.24 82.33 260.24 81.91 259.41C81.5 258.57 80.92 257.93 80.19 257.47C79.46 257.02 78.62 256.79 77.66 256.79C76.7 256.79 75.85 257.02 75.12 257.47C74.39 257.93 73.81 258.57 73.39 259.41C72.98 260.24 72.78 261.24 72.78 262.41L72.78 262.87C72.78 264.04 72.98 265.04 73.4 265.88C73.82 266.71 74.39 267.35 75.13 267.81C75.87 268.26 76.72 268.48 77.67 268.48C78.63 268.48 79.48 268.26 80.21 267.81C80.94 267.35 81.51 266.71 81.92 265.88ZM16.51 268.32L18.97 268.32L18.97 263.72L23.43 263.72L23.43 261.75L18.97 261.75L18.97 258.93L23.97 258.93L23.97 256.95L16.51 256.95L16.51 268.32ZM26.23 268.32L28.69 268.32L28.69 256.95L26.23 256.95L26.23 268.32ZM36.79 258.93L40.25 258.93L40.25 256.95L30.93 256.95L30.93 258.93L34.34 258.93L34.34 268.32L36.79 268.32L36.79 258.93ZM67.93 258.93L71.38 258.93L71.38 256.95L62.07 256.95L62.07 258.93L65.48 258.93L65.48 268.32L67.93 268.32L67.93 258.93ZM91.84 268.32L94.3 268.32L94.3 256.95L91.85 256.95L91.85 264.28L87.43 256.95L84.97 256.95L84.97 268.32L87.43 268.32L87.43 261L91.84 268.32ZM98.74 268.32L104.75 268.32L104.75 266.35L99.53 266.35L99.53 263.43L103.97 263.43L103.97 261.52L99.53 261.52L99.53 258.93L104.74 258.93L104.74 256.95L97.07 256.95L97.07 268.32L98.74 268.32ZM79.78 260.43Q80.06 261.22 80.06 262.39L80.06 262.87Q80.06 264.03 79.78 264.84C79.59 265.37 79.32 265.77 78.96 266.05C78.61 266.33 78.18 266.46 77.67 266.46Q77.06 266.46 76.59 266.2Q76.47 266.13 76.36 266.05C76.01 265.77 75.74 265.37 75.55 264.84Q75.27 264.03 75.27 262.87L75.27 262.39C75.27 261.61 75.36 260.96 75.54 260.43C75.73 259.89 76 259.49 76.35 259.22C76.71 258.95 77.14 258.82 77.66 258.82C78.16 258.82 78.6 258.95 78.96 259.22C79.32 259.49 79.59 259.89 79.78 260.43Z" fill="#FFFFFF" fill-opacity="1.000000" fill-rule="evenodd"/>
</svg>
